<?xml version="1.0" encoding="UTF-8" standalone="no"?>
<svg
   version="1.2"
   width="297mm"
   height="142mm"
   viewBox="0 0 29700 14200"
   preserveAspectRatio="xMidYMid"
   fill-rule="evenodd"
   stroke-width="28.222"
   stroke-linejoin="round"
   xml:space="preserve"
   id="svg115"
   sodipodi:docname="favicon.svg"
   inkscape:version="1.2.2 (732a01da63, 2022-12-09)"
   xmlns:inkscape="http://www.inkscape.org/namespaces/inkscape"
   xmlns:sodipodi="http://sodipodi.sourceforge.net/DTD/sodipodi-0.dtd"
   xmlns="http://www.w3.org/2000/svg"
   xmlns:svg="http://www.w3.org/2000/svg"
   xmlns:ooo="http://xml.openoffice.org/svg/export"><sodipodi:namedview
   id="namedview117"
   pagecolor="#ffffff"
   bordercolor="#000000"
   borderopacity="0.25"
   inkscape:showpageshadow="2"
   inkscape:pageopacity="0.0"
   inkscape:pagecheckerboard="0"
   inkscape:deskcolor="#d1d1d1"
   inkscape:document-units="mm"
   showgrid="false"
   inkscape:zoom="0.65137897"
   inkscape:cx="561.88489"
   inkscape:cy="276.33683"
   inkscape:window-width="1366"
   inkscape:window-height="697"
   inkscape:window-x="-8"
   inkscape:window-y="-8"
   inkscape:window-maximized="1"
   inkscape:current-layer="g113" />
 <defs
   class="ClipPathGroup"
   id="defs8">
  <clipPath
   id="presentation_clip_path"
   clipPathUnits="userSpaceOnUse">
   <rect
   x="0"
   y="0"
   width="29700"
   height="21000"
   id="rect2" />
  </clipPath>
  <clipPath
   id="presentation_clip_path_shrink"
   clipPathUnits="userSpaceOnUse">
   <rect
   x="29"
   y="21"
   width="29641"
   height="20958"
   id="rect5" />
  </clipPath>
 </defs>
 <defs
   class="TextShapeIndex"
   id="defs12">
  <g
   ooo:slide="id1"
   ooo:id-list="id3 id4 id5 id6"
   id="g10" />
 </defs>
 <defs
   class="EmbeddedBulletChars"
   id="defs44">
  <g
   id="bullet-char-template-57356"
   transform="matrix(4.8828125e-4,0,0,-4.8828125e-4,0,0)">
   <path
   d="M 580,1141 1163,571 580,0 -4,571 Z"
   id="path14" />
  </g>
  <g
   id="bullet-char-template-57354"
   transform="matrix(4.8828125e-4,0,0,-4.8828125e-4,0,0)">
   <path
   d="M 8,1128 H 1137 V 0 H 8 Z"
   id="path17" />
  </g>
  <g
   id="bullet-char-template-10146"
   transform="matrix(4.8828125e-4,0,0,-4.8828125e-4,0,0)">
   <path
   d="M 174,0 602,739 174,1481 1456,739 Z M 1358,739 309,1346 659,739 Z"
   id="path20" />
  </g>
  <g
   id="bullet-char-template-10132"
   transform="matrix(4.8828125e-4,0,0,-4.8828125e-4,0,0)">
   <path
   d="M 2015,739 1276,0 H 717 l 543,543 H 174 v 393 h 1086 l -543,545 h 557 z"
   id="path23" />
  </g>
  <g
   id="bullet-char-template-10007"
   transform="matrix(4.8828125e-4,0,0,-4.8828125e-4,0,0)">
   <path
   d="m 0,-2 c -7,16 -16,29 -25,39 l 381,530 c -94,256 -141,385 -141,387 0,25 13,38 40,38 9,0 21,-2 34,-5 21,4 42,12 65,25 l 27,-13 111,-251 280,301 64,-25 24,25 c 21,-10 41,-24 62,-43 C 886,937 835,863 770,784 769,783 710,716 594,584 L 774,223 c 0,-27 -21,-55 -63,-84 l 16,-20 C 717,90 699,76 672,76 641,76 570,178 457,381 L 164,-76 c -22,-34 -53,-51 -92,-51 -42,0 -63,17 -64,51 -7,9 -10,24 -10,44 0,9 1,19 2,30 z"
   id="path26" />
  </g>
  <g
   id="bullet-char-template-10004"
   transform="matrix(4.8828125e-4,0,0,-4.8828125e-4,0,0)">
   <path
   d="M 285,-33 C 182,-33 111,30 74,156 52,228 41,333 41,471 c 0,78 14,145 41,201 34,71 87,106 158,106 53,0 88,-31 106,-94 l 23,-176 c 8,-64 28,-97 59,-98 l 735,706 c 11,11 33,17 66,17 42,0 63,-15 63,-46 V 965 c 0,-36 -10,-64 -30,-84 L 442,47 C 390,-6 338,-33 285,-33 Z"
   id="path29" />
  </g>
  <g
   id="bullet-char-template-9679"
   transform="matrix(4.8828125e-4,0,0,-4.8828125e-4,0,0)">
   <path
   d="M 813,0 C 632,0 489,54 383,161 276,268 223,411 223,592 c 0,181 53,324 160,431 106,107 249,161 430,161 179,0 323,-54 432,-161 108,-107 162,-251 162,-431 0,-180 -54,-324 -162,-431 C 1136,54 992,0 813,0 Z"
   id="path32" />
  </g>
  <g
   id="bullet-char-template-8226"
   transform="matrix(4.8828125e-4,0,0,-4.8828125e-4,0,0)">
   <path
   d="m 346,457 c -73,0 -137,26 -191,78 -54,51 -81,114 -81,188 0,73 27,136 81,188 54,52 118,78 191,78 73,0 134,-26 185,-79 51,-51 77,-114 77,-187 0,-75 -25,-137 -76,-188 -50,-52 -112,-78 -186,-78 z"
   id="path35" />
  </g>
  <g
   id="bullet-char-template-8211"
   transform="matrix(4.8828125e-4,0,0,-4.8828125e-4,0,0)">
   <path
   d="M -4,459 H 1135 V 606 H -4 Z"
   id="path38" />
  </g>
  <g
   id="bullet-char-template-61548"
   transform="matrix(4.8828125e-4,0,0,-4.8828125e-4,0,0)">
   <path
   d="m 173,740 c 0,163 58,303 173,419 116,115 255,173 419,173 163,0 302,-58 418,-173 116,-116 174,-256 174,-419 0,-163 -58,-303 -174,-418 C 1067,206 928,148 765,148 601,148 462,206 346,322 231,437 173,577 173,740 Z"
   id="path41" />
  </g>
 </defs>
 <g
   id="g49">
  <g
   id="id2"
   class="Master_Slide">
   <g
   id="bg-id2"
   class="Background" />
   <g
   id="bo-id2"
   class="BackgroundObjects" />
  </g>
 </g>
 <g
   class="SlideGroup"
   id="g113"
   transform="matrix(1.2665051,0,0,1.8253243,-4903.8896,-10314.639)">
  <g
   id="g111"
   transform="translate(-32.071687,356.04812)">
   <g
   id="container-id1">
    <g
   id="id1"
   class="Slide"
   clip-path="url(#presentation_clip_path)">
     <g
   class="Page"
   id="g107">
      <g
   class="Group"
   id="g76">
       <g
   class="com.sun.star.drawing.CustomShape"
   id="g74">
        <g
   id="id3">
         <rect
   class="BoundingBox"
   stroke="none"
   fill="none"
   x="8341"
   y="6564"
   width="11598"
   height="5954"
   id="rect51" />
         <path
   fill="#dddddd"
   stroke="none"
   d="m 12511,11925 -339,-1214 h -1792 l -484,1171 30,24 32,22 71,43 78,38 87,35 94,30 103,24 111,22 118,17 -63,340 H 8593 l 72,-340 95,-7 89,-13 80,-18 37,-11 34,-12 33,-14 31,-16 29,-17 27,-18 24,-19 24,-21 20,-23 19,-23 2145,-5108 h 904 l 1581,5032 17,26 18,26 21,25 23,23 25,22 27,22 30,19 31,19 68,34 76,28 85,24 93,20 -63,340 h -2382 l 71,-340 97,-16 88,-20 79,-21 72,-25 62,-29 28,-15 26,-15 24,-17 22,-18 19,-18 z m -1053,-3785 -855,2037 h 1417 z m 6015,-1323 520,23 233,29 216,41 197,53 178,64 161,75 144,88 125,98 105,112 90,123 70,134 53,145 35,158 15,169 -1,181 -12,133 -20,127 -30,122 -38,116 -45,111 -55,104 -63,99 -72,94 -80,88 -89,82 -98,77 -105,71 -114,65 -123,59 -131,55 -140,48 65,49 62,56 58,61 55,67 50,73 47,79 44,84 40,91 565,1511 11,23 14,24 17,23 19,22 22,20 25,21 27,20 32,19 69,35 81,33 93,30 103,27 -80,348 h -1583 l -716,-2224 -13,-33 -15,-31 -17,-30 -20,-28 -20,-26 -23,-25 -26,-23 -27,-20 -30,-19 -30,-18 -33,-16 -36,-14 -37,-12 -40,-11 -84,-16 -78,-1 -84,-3 -193,-13 h -96 l -112,1960 23,22 24,22 28,20 29,20 66,38 74,35 85,33 93,29 103,28 112,25 -80,331 h -2400 l 54,-348 74,-17 70,-22 68,-24 66,-30 61,-34 60,-39 57,-42 55,-47 255,-4455 -42,-38 -49,-36 -54,-36 -62,-34 -67,-34 -74,-32 -80,-31 -86,-31 53,-330 z m 791,1510 3,-115 -6,-109 -15,-102 -22,-95 -15,-45 -17,-43 -19,-43 -21,-39 -23,-39 -26,-36 -27,-35 -30,-33 -31,-32 -33,-30 -34,-26 -35,-26 -37,-23 -37,-21 -40,-19 -40,-18 -42,-15 -42,-13 -89,-20 -95,-12 -100,-4 -192,2 -169,6 -146,11 -121,14 -116,2029 h 565 l 121,-4 113,-13 105,-21 98,-29 91,-38 85,-45 76,-55 69,-63 63,-70 54,-80 48,-88 41,-96 33,-103 26,-114 18,-120 z"
   id="path53" />
         <path
   fill="none"
   stroke="#dddddd"
   stroke-width="80"
   stroke-linejoin="round"
   stroke-linecap="round"
   d="m 12511,11925 -339,-1214 h -1792 l -484,1171 30,24 32,22 71,43 78,38 87,35 94,30 103,24 111,22 118,17 -63,340 H 8593 l 72,-340 95,-7 89,-13 80,-18 37,-11 34,-12 33,-14 31,-16 29,-17 27,-18 24,-19 24,-21 20,-23 19,-23 2145,-5108 h 904 l 1581,5032 17,26 18,26 21,25 23,23 25,22 27,22 30,19 31,19 68,34 76,28 85,24 93,20 -63,340 h -2382 l 71,-340 97,-16 88,-20 79,-21 72,-25 62,-29 28,-15 26,-15 24,-17 22,-18 19,-18 z"
   id="path55" />
         <path
   fill="none"
   stroke="#dddddd"
   stroke-width="80"
   stroke-linejoin="round"
   stroke-linecap="round"
   d="m 11458,8140 -855,2037 h 1417 z"
   id="path57" />
         <path
   fill="none"
   stroke="#dddddd"
   stroke-width="80"
   stroke-linejoin="round"
   stroke-linecap="round"
   d="m 17473,6817 520,23 233,29 216,41 197,53 178,64 161,75 144,88 125,98 105,112 90,123 70,134 53,145 35,158 15,169 -1,181 -12,133 -20,127 -30,122 -38,116 -45,111 -55,104 -63,99 -72,94 -80,88 -89,82 -98,77 -105,71 -114,65 -123,59 -131,55 -140,48 65,49 62,56 58,61 55,67 50,73 47,79 44,84 40,91 565,1511 11,23 14,24 17,23 19,22 22,20 25,21 27,20 32,19 69,35 81,33 93,30 103,27 -80,348 h -1583 l -716,-2224 -13,-33 -15,-31 -17,-30 -20,-28 -20,-26 -23,-25 -26,-23 -27,-20 -30,-19 -30,-18 -33,-16 -36,-14 -37,-12 -40,-11 -84,-16 -78,-1 -84,-3 -193,-13 h -96 l -112,1960 23,22 24,22 28,20 29,20 66,38 74,35 85,33 93,29 103,28 112,25 -80,331 h -2400 l 54,-348 74,-17 70,-22 68,-24 66,-30 61,-34 60,-39 57,-42 55,-47 255,-4455 -42,-38 -49,-36 -54,-36 -62,-34 -67,-34 -74,-32 -80,-31 -86,-31 53,-330 z"
   id="path59" />
         <path
   fill="none"
   stroke="#dddddd"
   stroke-width="80"
   stroke-linejoin="round"
   stroke-linecap="round"
   d="m 18264,8327 3,-115 -6,-109 -15,-102 -22,-95 -15,-45 -17,-43 -19,-43 -21,-39 -23,-39 -26,-36 -27,-35 -30,-33 -31,-32 -33,-30 -34,-26 -35,-26 -37,-23 -37,-21 -40,-19 -40,-18 -42,-15 -42,-13 -89,-20 -95,-12 -100,-4 -192,2 -169,6 -146,11 -121,14 -116,2029 h 565 l 121,-4 113,-13 105,-21 98,-29 91,-38 85,-45 76,-55 69,-63 63,-70 54,-80 48,-88 41,-96 33,-103 26,-114 18,-120 z"
   id="path61" />
         <path
   fill="#0971f7"
   stroke="none"
   d="m 12299,11713 -339,-1214 h -1792 l -484,1171 30,24 32,22 71,43 78,38 87,35 94,30 103,24 111,22 118,17 -63,340 H 8381 l 72,-340 95,-7 89,-13 80,-18 37,-11 34,-12 33,-14 31,-16 29,-17 27,-18 24,-19 24,-21 20,-23 19,-23 2145,-5108 h 904 l 1581,5032 17,26 18,26 21,25 23,23 25,22 27,22 30,19 31,19 68,34 76,28 85,24 93,20 -63,340 h -2382 l 71,-340 97,-16 88,-20 79,-21 72,-25 62,-29 28,-15 26,-15 24,-17 22,-18 19,-18 z m -1053,-3785 -855,2037 h 1417 z m 6015,-1323 520,23 233,29 216,41 197,53 178,64 161,75 144,88 125,98 105,112 90,123 70,134 53,145 35,158 15,169 -1,181 -12,133 -20,127 -30,122 -38,116 -45,111 -55,104 -63,99 -72,94 -80,88 -89,82 -98,77 -105,71 -114,65 -123,59 -131,55 -140,48 65,49 62,56 58,61 55,67 50,73 47,79 44,84 40,91 565,1511 11,23 14,24 17,23 19,22 22,20 25,21 27,20 32,19 69,35 81,33 93,30 103,27 -80,348 h -1583 l -716,-2224 -13,-33 -15,-31 -17,-30 -20,-28 -20,-26 -23,-25 -26,-23 -27,-20 -30,-19 -30,-18 -33,-16 -36,-14 -37,-12 -40,-11 -84,-16 -78,-1 -84,-3 -193,-13 h -96 l -112,1960 23,22 24,22 28,20 29,20 66,38 74,35 85,33 93,29 103,28 112,25 -80,331 h -2400 l 54,-348 74,-17 70,-22 68,-24 66,-30 61,-34 60,-39 57,-42 55,-47 255,-4455 -42,-38 -49,-36 -54,-36 -62,-34 -67,-34 -74,-32 -80,-31 -86,-31 53,-330 z m 791,1510 3,-115 -6,-109 -15,-102 -22,-95 -15,-45 -17,-43 -19,-43 -21,-39 -23,-39 -26,-36 -27,-35 -30,-33 -31,-32 -33,-30 -34,-26 -35,-26 -37,-23 -37,-21 -40,-19 -40,-18 -42,-15 -42,-13 -89,-20 -95,-12 -100,-4 -192,2 -169,6 -146,11 -121,14 -116,2029 h 565 l 121,-4 113,-13 105,-21 98,-29 91,-38 85,-45 76,-55 69,-63 63,-70 54,-80 48,-88 41,-96 33,-103 26,-114 18,-120 z"
   id="path63" />
         <path
   fill="none"
   stroke="#ffffff"
   stroke-width="80"
   stroke-linejoin="round"
   stroke-linecap="round"
   d="m 12299,11713 -339,-1214 h -1792 l -484,1171 30,24 32,22 71,43 78,38 87,35 94,30 103,24 111,22 118,17 -63,340 H 8381 l 72,-340 95,-7 89,-13 80,-18 37,-11 34,-12 33,-14 31,-16 29,-17 27,-18 24,-19 24,-21 20,-23 19,-23 2145,-5108 h 904 l 1581,5032 17,26 18,26 21,25 23,23 25,22 27,22 30,19 31,19 68,34 76,28 85,24 93,20 -63,340 h -2382 l 71,-340 97,-16 88,-20 79,-21 72,-25 62,-29 28,-15 26,-15 24,-17 22,-18 19,-18 z"
   id="path65" />
         <path
   fill="none"
   stroke="#ffffff"
   stroke-width="80"
   stroke-linejoin="round"
   stroke-linecap="round"
   d="m 11246,7928 -855,2037 h 1417 z"
   id="path67" />
         <path
   fill="none"
   stroke="#ffffff"
   stroke-width="80"
   stroke-linejoin="round"
   stroke-linecap="round"
   d="m 17261,6605 520,23 233,29 216,41 197,53 178,64 161,75 144,88 125,98 105,112 90,123 70,134 53,145 35,158 15,169 -1,181 -12,133 -20,127 -30,122 -38,116 -45,111 -55,104 -63,99 -72,94 -80,88 -89,82 -98,77 -105,71 -114,65 -123,59 -131,55 -140,48 65,49 62,56 58,61 55,67 50,73 47,79 44,84 40,91 565,1511 11,23 14,24 17,23 19,22 22,20 25,21 27,20 32,19 69,35 81,33 93,30 103,27 -80,348 h -1583 l -716,-2224 -13,-33 -15,-31 -17,-30 -20,-28 -20,-26 -23,-25 -26,-23 -27,-20 -30,-19 -30,-18 -33,-16 -36,-14 -37,-12 -40,-11 -84,-16 -78,-1 -84,-3 -193,-13 h -96 l -112,1960 23,22 24,22 28,20 29,20 66,38 74,35 85,33 93,29 103,28 112,25 -80,331 h -2400 l 54,-348 74,-17 70,-22 68,-24 66,-30 61,-34 60,-39 57,-42 55,-47 255,-4455 -42,-38 -49,-36 -54,-36 -62,-34 -67,-34 -74,-32 -80,-31 -86,-31 53,-330 z"
   id="path69" />
         <path
   fill="none"
   stroke="#ffffff"
   stroke-width="80"
   stroke-linejoin="round"
   stroke-linecap="round"
   d="m 18052,8115 3,-115 -6,-109 -15,-102 -22,-95 -15,-45 -17,-43 -19,-43 -21,-39 -23,-39 -26,-36 -27,-35 -30,-33 -31,-32 -33,-30 -34,-26 -35,-26 -37,-23 -37,-21 -40,-19 -40,-18 -42,-15 -42,-13 -89,-20 -95,-12 -100,-4 -192,2 -169,6 -146,11 -121,14 -116,2029 h 565 l 121,-4 113,-13 105,-21 98,-29 91,-38 85,-45 76,-55 69,-63 63,-70 54,-80 48,-88 41,-96 33,-103 26,-114 18,-120 z"
   id="path71" />
        </g>
       </g>
      </g>
      <g
   class="Group"
   id="g105">
       <g
   class="com.sun.star.drawing.ClosedBezierShape"
   id="g85">
        <g
   id="id4">
         <rect
   class="BoundingBox"
   stroke="none"
   fill="none"
   x="4099"
   y="5708"
   width="4784"
   height="7173"
   id="rect78" />
         <path
   fill="#000000"
   stroke="none"
   d="M 4100,8860 C 5355,7810 6610,6759 7866,5709 c 338,74 677,148 1015,222 -1204,969 -2408,1938 -3612,2907 1094,1199 160,193 3281,3599 -868,414 -598,295 -896,442 C 6469,11539 5285,10200 4100,8860 Z"
   id="path80" />
         <path
   fill="none"
   stroke="#3465a4"
   d="M 4100,8860 C 5355,7810 6610,6759 7866,5709 c 338,74 677,148 1015,222 L 5269,8838 c 1094,1199 160,193 3281,3599 -868,414 -598,295 -896,442 C 6469,11539 5285,10200 4100,8860 Z"
   id="path82" />
        </g>
       </g>
       <g
   class="com.sun.star.drawing.CustomShape"
   id="g94">
        <g
   id="id5">
         <rect
   class="BoundingBox"
   stroke="none"
   fill="none"
   x="19821"
   y="4632"
   width="2718"
   height="8350"
   id="rect87" />
         <path
   fill="#000000"
   stroke="none"
   d="m 21830,4633 707,128 -2008,8219 -707,-128 z"
   id="path89" />
         <path
   fill="none"
   stroke="#3465a4"
   d="m 21830,4633 707,128 -2008,8219 -707,-128 z"
   id="path91" />
        </g>
       </g>
       <g
   class="com.sun.star.drawing.ClosedBezierShape"
   id="g103">
        <g
   id="id6">
         <rect
   class="BoundingBox"
   stroke="none"
   fill="none"
   x="22585"
   y="5619"
   width="4784"
   height="7178"
   id="rect96" />
         <path
   fill="#000000"
   stroke="none"
   d="M 27367,8774 C 26112,7722 24857,6671 23602,5620 c -339,74 -678,148 -1016,222 1204,969 2408,1939 3612,2909 -1094,1200 -160,193 -3281,3601 869,415 598,296 897,443 1184,-1340 2369,-2681 3553,-4021 z"
   id="path98" />
         <path
   fill="none"
   stroke="#3465a4"
   d="M 27367,8774 C 26112,7722 24857,6671 23602,5620 c -339,74 -678,148 -1016,222 1204,969 2408,1939 3612,2909 -1094,1200 -160,193 -3281,3601 869,415 598,296 897,443 1184,-1340 2369,-2681 3553,-4021 z"
   id="path100" />
        </g>
       </g>
      </g>
     </g>
    </g>
   </g>
  </g>
 </g>
</svg>
